<mxfile host="app.diagrams.net" modified="2021-12-13T04:44:27.960Z" agent="5.0 (Windows NT 10.0; Win64; x64) AppleWebKit/537.36 (KHTML, like Gecko) Chrome/96.0.4664.93 Safari/537.36" etag="PZqqYLPklopigoeXZ63D" version="15.9.4" type="github">
  <diagram id="whLxphDbOcCeGoWNnIWj" name="페이지-1">
    <mxGraphModel dx="1497" dy="802" grid="1" gridSize="10" guides="1" tooltips="1" connect="1" arrows="1" fold="1" page="1" pageScale="1" pageWidth="1654" pageHeight="1169" math="0" shadow="0">
      <root>
        <mxCell id="0" />
        <mxCell id="1" parent="0" />
        <mxCell id="h061LGX5uVM3FiNdkVwj-1" value="main.cpp" style="rounded=1;whiteSpace=wrap;html=1;sketch=1;fillColor=#dae8fc;strokeColor=#6c8ebf;fontSize=13;" vertex="1" parent="1">
          <mxGeometry x="40" y="490" width="80" height="40" as="geometry" />
        </mxCell>
        <mxCell id="h061LGX5uVM3FiNdkVwj-3" value="&lt;h1&gt;ProxyServer Source Code Flow&lt;/h1&gt;" style="text;html=1;strokeColor=none;fillColor=none;spacing=5;spacingTop=-20;whiteSpace=wrap;overflow=hidden;rounded=0;sketch=1;" vertex="1" parent="1">
          <mxGeometry x="14" y="10" width="400" height="40" as="geometry" />
        </mxCell>
        <mxCell id="h061LGX5uVM3FiNdkVwj-4" value="&lt;font style=&quot;font-size: 15px&quot;&gt;Header File&lt;/font&gt;" style="text;html=1;strokeColor=none;fillColor=none;align=center;verticalAlign=middle;whiteSpace=wrap;rounded=0;sketch=1;" vertex="1" parent="1">
          <mxGeometry x="40" y="60" width="89" height="30" as="geometry" />
        </mxCell>
        <mxCell id="h061LGX5uVM3FiNdkVwj-5" value="bridge.hpp" style="rounded=1;whiteSpace=wrap;html=1;sketch=1;fillColor=#ffe6cc;strokeColor=#d79b00;" vertex="1" parent="1">
          <mxGeometry x="40" y="100" width="80" height="30" as="geometry" />
        </mxCell>
        <mxCell id="h061LGX5uVM3FiNdkVwj-8" value="acceptor.hpp" style="rounded=1;whiteSpace=wrap;html=1;sketch=1;fillColor=#ffe6cc;strokeColor=#d79b00;" vertex="1" parent="1">
          <mxGeometry x="150" y="100" width="80" height="30" as="geometry" />
        </mxCell>
        <mxCell id="h061LGX5uVM3FiNdkVwj-9" value="jsonInput.hpp" style="rounded=1;whiteSpace=wrap;html=1;sketch=1;fillColor=#ffe6cc;strokeColor=#d79b00;" vertex="1" parent="1">
          <mxGeometry x="260" y="100" width="80" height="30" as="geometry" />
        </mxCell>
        <mxCell id="h061LGX5uVM3FiNdkVwj-10" value="common.hpp" style="rounded=1;whiteSpace=wrap;html=1;sketch=1;fillColor=#ffe6cc;strokeColor=#d79b00;" vertex="1" parent="1">
          <mxGeometry x="360" y="100" width="80" height="30" as="geometry" />
        </mxCell>
        <mxCell id="h061LGX5uVM3FiNdkVwj-11" value="&lt;font style=&quot;font-size: 15px&quot;&gt;CPP File&lt;/font&gt;" style="text;html=1;strokeColor=none;fillColor=none;align=center;verticalAlign=middle;whiteSpace=wrap;rounded=0;sketch=1;" vertex="1" parent="1">
          <mxGeometry x="40" y="150" width="89" height="30" as="geometry" />
        </mxCell>
        <mxCell id="h061LGX5uVM3FiNdkVwj-12" value="bridge.cpp" style="rounded=1;whiteSpace=wrap;html=1;sketch=1;fillColor=#ffe6cc;strokeColor=#d79b00;" vertex="1" parent="1">
          <mxGeometry x="40" y="190" width="80" height="30" as="geometry" />
        </mxCell>
        <mxCell id="h061LGX5uVM3FiNdkVwj-13" value="acceptor.cpp" style="rounded=1;whiteSpace=wrap;html=1;sketch=1;fillColor=#ffe6cc;strokeColor=#d79b00;" vertex="1" parent="1">
          <mxGeometry x="150" y="190" width="80" height="30" as="geometry" />
        </mxCell>
        <mxCell id="h061LGX5uVM3FiNdkVwj-14" value="jsonInput.cpp" style="rounded=1;whiteSpace=wrap;html=1;sketch=1;fillColor=#ffe6cc;strokeColor=#d79b00;" vertex="1" parent="1">
          <mxGeometry x="260" y="190" width="80" height="30" as="geometry" />
        </mxCell>
        <mxCell id="h061LGX5uVM3FiNdkVwj-17" value="jsonInput::start()" style="rounded=1;whiteSpace=wrap;html=1;sketch=1;fontSize=13;fillColor=#d5e8d4;strokeColor=#82b366;" vertex="1" parent="1">
          <mxGeometry x="240" y="490" width="110" height="40" as="geometry" />
        </mxCell>
        <mxCell id="h061LGX5uVM3FiNdkVwj-20" value="local, forward의 host, port를 변수에 넣는다." style="text;html=1;strokeColor=none;fillColor=none;align=left;verticalAlign=middle;whiteSpace=wrap;rounded=0;sketch=1;fontSize=13;" vertex="1" parent="1">
          <mxGeometry x="240" y="540" width="120" height="40" as="geometry" />
        </mxCell>
        <mxCell id="h061LGX5uVM3FiNdkVwj-21" value="" style="endArrow=classic;html=1;rounded=0;fontSize=12;entryX=0;entryY=0.5;entryDx=0;entryDy=0;" edge="1" parent="1" target="h061LGX5uVM3FiNdkVwj-17">
          <mxGeometry width="50" height="50" relative="1" as="geometry">
            <mxPoint x="120" y="510" as="sourcePoint" />
            <mxPoint x="170" y="460" as="targetPoint" />
          </mxGeometry>
        </mxCell>
        <mxCell id="h061LGX5uVM3FiNdkVwj-22" value="acceptor 생성자&lt;br style=&quot;font-size: 13px;&quot;&gt;이용하여 객체생성" style="rounded=1;whiteSpace=wrap;html=1;sketch=1;fontSize=13;fillColor=#d5e8d4;strokeColor=#82b366;" vertex="1" parent="1">
          <mxGeometry x="480" y="490" width="130" height="40" as="geometry" />
        </mxCell>
        <mxCell id="h061LGX5uVM3FiNdkVwj-27" value="" style="endArrow=classic;html=1;rounded=0;fontSize=13;strokeColor=#330000;exitX=1;exitY=0.5;exitDx=0;exitDy=0;entryX=0;entryY=0.5;entryDx=0;entryDy=0;" edge="1" parent="1" source="h061LGX5uVM3FiNdkVwj-17" target="h061LGX5uVM3FiNdkVwj-22">
          <mxGeometry width="50" height="50" relative="1" as="geometry">
            <mxPoint x="630" y="530" as="sourcePoint" />
            <mxPoint x="680" y="480" as="targetPoint" />
          </mxGeometry>
        </mxCell>
        <mxCell id="h061LGX5uVM3FiNdkVwj-28" value="io_service ios 변수&lt;br&gt;자체적으로 생성" style="text;html=1;strokeColor=none;fillColor=none;align=left;verticalAlign=middle;whiteSpace=wrap;rounded=0;sketch=1;fontSize=13;" vertex="1" parent="1">
          <mxGeometry x="350" y="440" width="120" height="40" as="geometry" />
        </mxCell>
        <mxCell id="h061LGX5uVM3FiNdkVwj-29" value="accept_connections()" style="rounded=1;whiteSpace=wrap;html=1;sketch=1;fontSize=13;fillColor=#d5e8d4;strokeColor=#82b366;" vertex="1" parent="1">
          <mxGeometry x="700" y="490" width="130" height="40" as="geometry" />
        </mxCell>
        <mxCell id="h061LGX5uVM3FiNdkVwj-30" value="" style="endArrow=classic;html=1;rounded=0;fontSize=13;strokeColor=#330000;exitX=1;exitY=0.5;exitDx=0;exitDy=0;entryX=0;entryY=0.5;entryDx=0;entryDy=0;" edge="1" parent="1" source="h061LGX5uVM3FiNdkVwj-22" target="h061LGX5uVM3FiNdkVwj-29">
          <mxGeometry width="50" height="50" relative="1" as="geometry">
            <mxPoint x="680" y="440" as="sourcePoint" />
            <mxPoint x="730" y="390" as="targetPoint" />
          </mxGeometry>
        </mxCell>
      </root>
    </mxGraphModel>
  </diagram>
</mxfile>
